<?xml version="1.0" standalone="no"?><!DOCTYPE svg PUBLIC "-//W3C//DTD SVG 1.1//EN" "http://www.w3.org/Graphics/SVG/1.1/DTD/svg11.dtd"><svg class="icon" width="200px" height="200.00px" viewBox="0 0 1024 1024" version="1.1" xmlns="http://www.w3.org/2000/svg"><path fill="#333333" d="M940.280762 553.741683c-11.320836 11.320836-26.201755 16.98279-41.043788 16.98279-6.702656 0-13.32754-1.316995-19.708877-3.615341L879.528096 880.721783c0 42.825364-34.722826 77.546144-77.54819 77.546144L666.275177 958.267926l-19.386536 0L608.113523 958.267926c-21.412682 0-38.773072-17.361413-38.773072-38.774095l0-19.385513L569.340451 880.721783 569.340451 745.015008c0-10.705829-8.688893-19.386536-19.386536-19.386536l-77.546144 0c-10.697643 0-19.387559 8.680706-19.387559 19.386536L453.020212 880.721783l0 19.386536 0 19.385513c0 21.412682-17.36039 38.774095-38.773072 38.774095l-38.774095 0-19.386536 0L220.379735 958.267926c-42.825364 0-77.547167-34.721803-77.547167-77.546144L142.832568 566.039777c-20.825304 7.504928-45.00296 2.847861-61.444421-14.06739-22.37766-23.041786-21.838378-59.864436 1.201361-82.242096l79.629595-77.621868L162.219103 221.574445c0-21.412682 17.361413-38.773072 38.774095-38.773072l77.546144 0c21.412682 0 38.774095 17.36039 38.774095 38.773072l0 19.368116 162.306596-158.217465c22.833031-22.150486 59.220776-21.88545 81.713047 0.662079l379.100154 388.112412C963.114816 494.237451 963.037045 531.070334 940.280762 553.741683zM220.379735 919.494854l135.706775 0 19.386536 0 19.387559 0c10.705829 0 19.386536-8.67866 19.386536-19.385513L414.24714 880.721783 414.24714 725.628472c0-21.412682 17.36039-38.773072 38.773072-38.773072L569.340451 686.8554c21.412682 0 38.773072 17.36039 38.773072 38.773072L608.113523 880.721783l0 19.386536c0 10.706853 8.69094 19.385513 19.387559 19.385513l19.386536 0 19.386536 0 135.704728 0c21.413706 0 38.776142-17.36039 38.776142-38.773072L840.755024 535.889083 519.510556 206.172663 181.606663 535.623024 181.606663 880.721783C181.606663 902.134465 198.968076 919.494854 220.379735 919.494854zM278.539342 240.96098c0-10.706853-8.679683-19.386536-19.386536-19.386536l-38.773072 0c-10.705829 0-19.386536 8.679683-19.386536 19.386536l0 113.356744 77.546144-75.587536L278.539342 240.96098zM912.962579 498.876098 533.879821 110.762663c-4.940522-4.960988-10.715039-5.698792-13.724583-5.698792-5.074575 0-9.863648 1.949398-13.498432 5.480828L109.606839 497.541707c-7.667633 7.440459-7.855922 19.745716-0.398066 27.414373 4.960988 5.111414 10.838859 5.868661 13.906731 5.868661 5.064342 0 9.854439-1.950422 13.498432-5.490038l6.219655-6.057973 0-6.901177 7.081279 0 370.032638-360.679619L871.973026 512.37453l7.55507 0 0 7.752568 5.983271 6.124488c4.941546 4.959965 10.715039 5.698792 13.725606 5.698792 2.991124 0 8.746198-0.73985 13.687744-5.661953 4.941546-4.941546 5.698792-10.705829 5.698792-13.707187C918.623509 509.592161 917.904125 503.817644 912.962579 498.876098zM511.180843 337.89366c42.825364 0 77.54512 34.721803 77.54512 77.547167s-34.720779 77.547167-77.54512 77.547167c-42.825364 0-77.547167-34.721803-77.547167-77.547167S468.355479 337.89366 511.180843 337.89366zM511.180843 454.214922c21.412682 0 38.773072-17.361413 38.773072-38.774095s-17.36039-38.773072-38.773072-38.773072c-21.412682 0-38.773072 17.36039-38.773072 38.773072S489.768161 454.214922 511.180843 454.214922z" /></svg>